<?xml version="1.0" standalone="no"?>
<!DOCTYPE svg PUBLIC "-//W3C//DTD SVG 20010904//EN"
 "http://www.w3.org/TR/2001/REC-SVG-20010904/DTD/svg10.dtd">
<svg version="1.0" xmlns="http://www.w3.org/2000/svg"
 width="700.000000pt" height="700.000000pt" viewBox="0 0 700.000000 700.000000"
 preserveAspectRatio="xMidYMid meet">
<metadata>
Created by potrace 1.11, written by Peter Selinger 2001-2013
</metadata>
<g transform="translate(0.000000,700.000000) scale(0.100000,-0.100000)"
fill="#000000" stroke="none">
<path d="M771 6377 c-68 -9 -128 -44 -176 -99 -73 -86 -67 152 -67 -2852 0
-1485 3 -2717 7 -2736 16 -89 93 -178 185 -215 43 -17 183 -17 2790 -17 2089
0 2755 3 2789 12 109 29 189 118 208 230 5 25 8 1262 7 2750 -1 2698 -1 2705
-22 2751 -38 86 -119 156 -202 175 -46 10 -5448 12 -5519 1z"/>
</g>
</svg>
